<svg id="bold" height="512" viewBox="0 0 24 24" width="512" xmlns="http://www.w3.org/2000/svg"><path d="m7.25 22h-5.5c-.965 0-1.75-.785-1.75-1.75v-16.5c0-.965.785-1.75 1.75-1.75h4.5c.965 0 1.75.785 1.75 1.75v17.5c0 .414-.336.75-.75.75zm-5.5-18.5c-.138 0-.25.112-.25.25v16.5c0 .138.112.25.25.25h4.75v-16.75c0-.138-.112-.25-.25-.25z"/><path d="m4.25 7h-.5c-.414 0-.75-.336-.75-.75v-.5c0-.414.336-.75.75-.75h.5c.414 0 .75.336.75.75v.5c0 .414-.336.75-.75.75z"/><path d="m4.25 11h-.5c-.414 0-.75-.336-.75-.75v-.5c0-.414.336-.75.75-.75h.5c.414 0 .75.336.75.75v.5c0 .414-.336.75-.75.75z"/><path d="m4.25 15h-.5c-.414 0-.75-.336-.75-.75v-.5c0-.414.336-.75.75-.75h.5c.414 0 .75.336.75.75v.5c0 .414-.336.75-.75.75z"/><path d="m4.25 19h-.5c-.414 0-.75-.336-.75-.75v-.5c0-.414.336-.75.75-.75h.5c.414 0 .75.336.75.75v.5c0 .414-.336.75-.75.75z"/><path d="m13.25 12.25h-2.5c-.414 0-.75-.336-.75-.75v-5c0-.414.336-.75.75-.75h2.5c.414 0 .75.336.75.75v5c0 .414-.336.75-.75.75zm-1.75-1.5h1v-3.5h-1z"/><path d="m20.25 12.25h-2.5c-.414 0-.75-.336-.75-.75v-5c0-.414.336-.75.75-.75h2.5c.414 0 .75.336.75.75v5c0 .414-.336.75-.75.75zm-1.75-1.5h1v-3.5h-1z"/><path d="m14.25 7.25h-4.5c-.414 0-.75-.336-.75-.75s.336-.75.75-.75h4.5c.414 0 .75.336.75.75s-.336.75-.75.75z"/><path d="m21.25 7.25h-4.5c-.414 0-.75-.336-.75-.75s.336-.75.75-.75h4.5c.414 0 .75.336.75.75s-.336.75-.75.75z"/><path d="m16.25 18.5h-1.5c-.138 0-.25.112-.25.25v3.25h2v-3.25c0-.138-.112-.25-.25-.25z"/><path d="m22.25 10.75h-15c-.414 0-.75.336-.75.75v9.75c0 .414.336.75.75.75h5.75v-3.25c0-.965.785-1.75 1.75-1.75h1.5c.965 0 1.75.785 1.75 1.75v3.25h4.25c.965 0 1.75-.785 1.75-1.75v-7.75c0-.965-.785-1.75-1.75-1.75zm-1.75 4.75h-10c-.414 0-.75-.336-.75-.75s.336-.75.75-.75h10c.414 0 .75.336.75.75s-.336.75-.75.75z"/></svg>